<?xml version="1.0" encoding="UTF-8" standalone="no"?><!DOCTYPE svg PUBLIC "-//W3C//DTD SVG 1.1//EN" "http://www.w3.org/Graphics/SVG/1.1/DTD/svg11.dtd"><svg width="100%" height="100%" viewBox="0 0 245 149" version="1.1" xmlns="http://www.w3.org/2000/svg" xmlns:xlink="http://www.w3.org/1999/xlink" xml:space="preserve" xmlns:serif="http://www.serif.com/" style="fill-rule:evenodd;clip-rule:evenodd;stroke-linejoin:round;stroke-miterlimit:2;"><g id="Full-Color" serif:id="Full Color"><rect x="85.536" y="73.737" width="14.107" height="5.545" style="fill:#263371;"/><rect x="85.536" y="83.836" width="14.107" height="5.545" style="fill:#6d9476;"/><rect x="85.536" y="93.935" width="14.107" height="5.545" style="fill:#978670;"/><rect x="42.922" y="73.737" width="14.107" height="5.545" style="fill:#263371;"/><rect x="42.922" y="83.836" width="14.107" height="5.545" style="fill:#6d9476;"/><rect x="42.922" y="93.935" width="14.107" height="5.545" style="fill:#978670;"/><path d="M14.435,56.209l0.017,28.374l-14.188,0.008l-0.017,-28.374c-0.001,-3.769 0.717,-7.389 2.156,-10.863c1.439,-3.474 3.488,-6.542 6.146,-9.204c2.658,-2.662 5.724,-4.714 9.197,-6.157c3.471,-1.443 7.092,-2.165 10.861,-2.167c3.768,-0.002 7.39,0.716 10.863,2.155c3.474,1.439 6.542,3.488 9.203,6.146c0.407,0.407 0.813,0.832 1.22,1.274c0.406,-0.443 0.813,-0.868 1.219,-1.275c2.659,-2.662 5.723,-4.714 9.196,-6.157c3.472,-1.443 7.093,-2.165 10.861,-2.167c3.769,-0.003 7.39,0.716 10.864,2.155c3.473,1.439 6.542,3.488 9.203,6.147c2.662,2.658 4.714,5.724 6.157,9.196c1.443,3.472 2.165,7.092 2.168,10.861l0.016,12.684l-14.188,0.008l-0.016,-12.684c-0.002,-3.916 -1.389,-7.259 -4.163,-10.029c-2.772,-2.769 -6.117,-4.153 -10.033,-4.151c-3.917,0.003 -7.259,1.39 -10.028,4.162c-2.77,2.773 -4.153,6.118 -4.151,10.034l0.016,12.684l-14.187,0.008l-0.017,-12.684c-0.002,-3.916 -1.39,-7.259 -4.162,-10.029c-2.773,-2.769 -6.117,-4.153 -10.033,-4.151c-3.917,0.003 -7.259,1.39 -10.029,4.163c-2.769,2.772 -4.153,6.117 -4.151,10.033" style="fill:#263371;fill-rule:nonzero;"/><path d="M2.344,19.902l-0.006,-9.692l-2.122,0.002l-0.002,-2.43l2.123,-0.001l-0.003,-4.59l2.775,-0.002l0.003,4.59l2.122,-0.001l0.002,2.43l-2.123,0.001l0.005,9.692l-2.774,0.001Z" style="fill:#263371;fill-rule:nonzero;"/><path d="M9.632,19.899l-0.012,-19.818l2.609,-0.002l0.006,9.679c0.553,-0.836 1.205,-1.445 1.955,-1.83c0.749,-0.383 1.662,-0.576 2.735,-0.576c0.904,-0.001 1.673,0.142 2.309,0.427c0.634,0.285 1.131,0.708 1.49,1.271c0.213,0.332 0.366,0.72 0.461,1.163c0.093,0.444 0.141,1.219 0.141,2.327l0.004,7.352l-2.8,0.002l-0.002,-6.227c-0.001,-1.594 -0.197,-2.653 -0.584,-3.177c-0.389,-0.524 -1.077,-0.786 -2.066,-0.785c-0.647,-0 -1.225,0.12 -1.732,0.359c-0.507,0.239 -0.906,0.576 -1.195,1.011c-0.205,0.29 -0.347,0.663 -0.427,1.118c-0.081,0.457 -0.121,1.184 -0.121,2.181l0.003,5.523l-2.774,0.002Z" style="fill:#263371;fill-rule:nonzero;"/><path d="M33.818,12.366c-0.111,-0.869 -0.444,-1.532 -0.999,-1.987c-0.554,-0.456 -1.313,-0.684 -2.276,-0.683c-0.912,0 -1.645,0.222 -2.199,0.666c-0.553,0.443 -0.941,1.113 -1.162,2.008l6.636,-0.004Zm2.878,1.865l-9.692,0.006c0.069,1.133 0.406,2.018 1.011,2.652c0.606,0.635 1.411,0.952 2.417,0.952c0.896,-0.001 1.641,-0.189 2.238,-0.564c0.596,-0.376 1.116,-0.981 1.558,-1.817l2.341,1.303c-0.681,1.22 -1.524,2.128 -2.53,2.725c-1.005,0.597 -2.186,0.896 -3.541,0.897c-1.944,0.001 -3.491,-0.591 -4.642,-1.775c-1.151,-1.184 -1.728,-2.765 -1.729,-4.743c-0.001,-1.9 0.592,-3.462 1.781,-4.687c1.188,-1.223 2.716,-1.836 4.583,-1.837c1.951,-0.001 3.473,0.557 4.565,1.672c1.092,1.117 1.638,2.681 1.64,4.692l0,0.524Z" style="fill:#263371;fill-rule:nonzero;"/><path d="M125.14,61.78c-0.23,-1.793 -0.917,-3.16 -2.061,-4.1c-1.143,-0.94 -2.708,-1.41 -4.695,-1.409c-1.882,0.001 -3.393,0.46 -4.536,1.374c-1.143,0.916 -1.941,2.296 -2.397,4.143l13.689,-0.008Zm5.937,3.848l-19.994,0.011c0.142,2.338 0.837,4.162 2.087,5.472c1.249,1.309 2.911,1.963 4.987,1.961c1.845,0 3.384,-0.388 4.614,-1.163c1.23,-0.774 2.303,-2.023 3.216,-3.747l4.829,2.688c-1.406,2.515 -3.146,4.389 -5.22,5.621c-2.074,1.232 -4.509,1.849 -7.305,1.851c-4.008,0.001 -7.201,-1.218 -9.576,-3.662c-2.376,-2.442 -3.564,-5.703 -3.566,-9.783c-0.003,-3.921 1.221,-7.144 3.674,-9.668c2.451,-2.525 5.602,-3.788 9.453,-3.791c4.026,-0.002 7.166,1.148 9.418,3.45c2.252,2.303 3.38,5.528 3.382,9.678l0.001,1.082Z" style="fill:#263371;fill-rule:nonzero;"/><path d="M138.389,77.282l-0.012,-19.993l-4.378,0.003l-0.003,-5.011l4.378,-0.003l-0.005,-9.469l5.724,-0.003l0.005,9.469l4.378,-0.003l0.003,5.011l-4.378,0.003l0.012,19.993l-5.724,0.003Z" style="fill:#263371;fill-rule:nonzero;"/><path d="M154.768,77.272l-0.012,-19.993l-4.378,0.003l-0.003,-5.011l4.379,-0.003l-0.006,-9.469l5.724,-0.003l0.005,9.469l4.379,-0.003l0.003,5.011l-4.379,0.003l0.012,19.993l-5.724,0.003Z" style="fill:#263371;fill-rule:nonzero;"/><path d="M175.765,36.379l0.023,40.881l-5.723,0.004l-0.023,-40.882l5.723,-0.003Z" style="fill:#263371;"/><path d="M202.102,61.737c-0.229,-1.793 -0.916,-3.16 -2.06,-4.101c-1.143,-0.939 -2.708,-1.409 -4.695,-1.408c-1.882,0.001 -3.393,0.46 -4.536,1.374c-1.143,0.915 -1.941,2.296 -2.397,4.143l13.688,-0.008Zm5.937,3.847l-19.993,0.012c0.142,2.338 0.838,4.162 2.087,5.472c1.249,1.309 2.911,1.962 4.987,1.961c1.845,-0 3.384,-0.388 4.615,-1.163c1.229,-0.774 2.302,-2.023 3.215,-3.747l4.828,2.688c-1.405,2.515 -3.145,4.389 -5.219,5.621c-2.074,1.231 -4.509,1.849 -7.305,1.85c-4.009,0.002 -7.201,-1.218 -9.576,-3.661c-2.376,-2.442 -3.564,-5.703 -3.566,-9.783c-0.003,-3.921 1.222,-7.144 3.674,-9.669c2.451,-2.524 5.602,-3.788 9.453,-3.79c4.026,-0.002 7.166,1.148 9.418,3.45c2.252,2.303 3.379,5.528 3.382,9.678l0,1.081Z" style="fill:#263371;fill-rule:nonzero;"/><path d="M127.948,119.915l0,-28.359l14.18,-0l0,28.359c0,3.767 -0.72,7.385 -2.16,10.856c-1.44,3.471 -3.49,6.537 -6.148,9.195c-2.659,2.659 -5.724,4.708 -9.195,6.148c-3.47,1.441 -7.09,2.16 -10.857,2.16c-3.765,-0 -7.384,-0.719 -10.855,-2.16c-3.471,-1.44 -6.536,-3.489 -9.195,-6.148c-0.406,-0.406 -0.812,-0.831 -1.218,-1.274c-0.406,0.443 -0.813,0.868 -1.219,1.274c-2.659,2.659 -5.724,4.708 -9.195,6.148c-3.47,1.441 -7.09,2.16 -10.856,2.16c-3.766,-0 -7.386,-0.719 -10.856,-2.16c-3.471,-1.44 -6.536,-3.489 -9.196,-6.148c-2.658,-2.658 -4.708,-5.724 -6.147,-9.195c-1.44,-3.471 -2.16,-7.089 -2.16,-10.856l0,-15.911l14.18,-0l0,15.911c0,3.914 1.384,7.256 4.153,10.026c2.769,2.769 6.112,4.154 10.026,4.154c3.914,-0 7.256,-1.385 10.026,-4.154c2.769,-2.77 4.154,-6.112 4.154,-10.026l0,-15.911l14.18,-0l0,15.911c0,3.914 1.383,7.256 4.153,10.026c2.769,2.769 6.112,4.154 10.025,4.154c3.915,-0 7.257,-1.385 10.027,-4.154c2.769,-2.77 4.153,-6.112 4.153,-10.026" style="fill:#978670;fill-rule:nonzero;"/><path d="M167.348,127.707c-0,-2.321 -0.748,-4.286 -2.242,-5.895c-1.495,-1.609 -3.323,-2.413 -5.487,-2.413c-2.145,0 -3.969,0.804 -5.472,2.413c-1.503,1.609 -2.255,3.574 -2.255,5.895c-0,2.321 0.752,4.286 2.255,5.895c1.503,1.609 3.327,2.414 5.472,2.414c2.146,0 3.97,-0.805 5.473,-2.414c1.504,-1.609 2.256,-3.574 2.256,-5.895m-21.496,-0.053c-0,-1.828 0.347,-3.556 1.042,-5.182c0.694,-1.627 1.691,-3.073 2.993,-4.339c1.283,-1.249 2.761,-2.207 4.431,-2.875c1.671,-0.668 3.42,-1.003 5.249,-1.003c1.882,0 3.653,0.335 5.314,1.003c1.662,0.668 3.153,1.653 4.471,2.954c1.319,1.284 2.321,2.734 3.007,4.352c0.685,1.618 1.029,3.314 1.029,5.09c-0,1.846 -0.339,3.579 -1.016,5.196c-0.677,1.618 -1.666,3.051 -2.967,4.299c-1.371,1.319 -2.893,2.317 -4.563,2.994c-1.671,0.677 -3.429,1.016 -5.275,1.016c-1.812,0 -3.552,-0.339 -5.222,-1.016c-1.671,-0.677 -3.157,-1.657 -4.458,-2.941c-1.318,-1.301 -2.321,-2.76 -3.007,-4.378c-0.685,-1.617 -1.028,-3.341 -1.028,-5.17" style="fill:#978670;fill-rule:nonzero;"/><path d="M185.177,119.109c0.615,-1.653 1.429,-2.875 2.44,-3.667c1.011,-0.791 2.264,-1.187 3.758,-1.187c0.809,0 1.605,0.098 2.388,0.291c0.782,0.193 1.552,0.475 2.308,0.844l-2.058,4.853c-0.492,-0.352 -1.024,-0.611 -1.596,-0.778c-0.571,-0.167 -1.209,-0.251 -1.912,-0.251c-1.899,0 -3.262,0.761 -4.088,2.282c-0.827,1.521 -1.24,4.075 -1.24,7.662l-0,10.972l-5.724,0l-0,-25.057l5.724,0l-0,4.036Z" style="fill:#978670;fill-rule:nonzero;"/><path d="M199.341,140.13l-0,-40.882l5.724,0l-0,26.244l10.47,-10.366l7.07,0l-11.342,11.025l12.423,13.979l-7.385,0l-11.236,-12.897l-0,12.897l-5.724,0Z" style="fill:#978670;fill-rule:nonzero;"/><path d="M224.345,135.594l4.748,-2.584c0.352,1.248 1.002,2.198 1.951,2.848c0.95,0.651 2.172,0.976 3.667,0.976c1.283,-0 2.29,-0.295 3.02,-0.884c0.729,-0.589 1.094,-1.393 1.094,-2.413c-0,-1.354 -1.301,-2.514 -3.903,-3.482c-0.88,-0.316 -1.556,-0.58 -2.031,-0.791c-2.673,-1.108 -4.541,-2.233 -5.605,-3.376c-1.064,-1.143 -1.595,-2.532 -1.595,-4.168c-0,-2.232 0.874,-4.043 2.624,-5.433c1.75,-1.389 4.066,-2.084 6.95,-2.084c1.934,-0 3.591,0.357 4.972,1.069c1.379,0.712 2.386,1.727 3.02,3.046l-4.062,2.796c-0.299,-0.791 -0.823,-1.42 -1.57,-1.886c-0.747,-0.466 -1.613,-0.699 -2.597,-0.699c-1.091,-0 -1.965,0.26 -2.624,0.778c-0.661,0.519 -0.99,1.209 -0.99,2.071c-0,1.301 1.477,2.488 4.431,3.56c0.932,0.335 1.652,0.607 2.163,0.818c2.303,0.915 3.951,1.948 4.945,3.099c0.994,1.152 1.491,2.59 1.491,4.313c-0,2.497 -0.907,4.453 -2.717,5.868c-1.812,1.415 -4.309,2.123 -7.49,2.123c-2.445,-0 -4.476,-0.457 -6.093,-1.371c-1.618,-0.914 -2.885,-2.312 -3.799,-4.194" style="fill:#978670;fill-rule:nonzero;"/></g></svg>