<?xml version="1.0" encoding="UTF-8" standalone="no"?><!DOCTYPE svg PUBLIC "-//W3C//DTD SVG 1.1//EN" "http://www.w3.org/Graphics/SVG/1.1/DTD/svg11.dtd"><svg width="100%" height="100%" viewBox="0 0 143 121" version="1.1" xmlns="http://www.w3.org/2000/svg" xmlns:xlink="http://www.w3.org/1999/xlink" xml:space="preserve" xmlns:serif="http://www.serif.com/" style="fill-rule:evenodd;clip-rule:evenodd;stroke-linejoin:round;stroke-miterlimit:2;"><g><rect x="85.296" y="46.137" width="14.107" height="5.545" style="fill:#263371;"/><rect x="85.296" y="56.236" width="14.107" height="5.545" style="fill:#6d9476;"/><rect x="85.296" y="66.335" width="14.107" height="5.545" style="fill:#978670;"/><rect x="42.682" y="46.137" width="14.107" height="5.545" style="fill:#263371;"/><rect x="42.682" y="56.236" width="14.107" height="5.545" style="fill:#6d9476;"/><rect x="42.682" y="66.335" width="14.107" height="5.545" style="fill:#978670;"/><path d="M14.195,28.608l0.017,28.375l-14.188,0.008l-0.017,-28.375c-0.001,-3.769 0.717,-7.389 2.156,-10.863c1.439,-3.474 3.488,-6.542 6.146,-9.204c2.658,-2.662 5.724,-4.714 9.197,-6.157c3.471,-1.443 7.092,-2.165 10.861,-2.167c3.768,-0.002 7.39,0.716 10.863,2.155c3.474,1.439 6.542,3.488 9.203,6.146c0.407,0.407 0.813,0.832 1.22,1.274c0.406,-0.443 0.813,-0.868 1.219,-1.275c2.659,-2.662 5.723,-4.714 9.196,-6.157c3.472,-1.443 7.093,-2.165 10.861,-2.167c3.769,-0.003 7.39,0.716 10.864,2.155c3.473,1.439 6.542,3.488 9.203,6.147c2.662,2.658 4.714,5.724 6.157,9.196c1.443,3.472 2.165,7.092 2.168,10.861l0.016,12.684l-14.188,0.008l-0.016,-12.684c-0.002,-3.916 -1.389,-7.259 -4.163,-10.029c-2.772,-2.769 -6.117,-4.153 -10.033,-4.151c-3.917,0.003 -7.259,1.39 -10.028,4.162c-2.77,2.773 -4.153,6.118 -4.151,10.034l0.016,12.684l-14.187,0.008l-0.017,-12.684c-0.002,-3.916 -1.39,-7.259 -4.162,-10.029c-2.773,-2.769 -6.117,-4.153 -10.033,-4.151c-3.917,0.003 -7.259,1.39 -10.029,4.163c-2.769,2.772 -4.153,6.117 -4.151,10.033" style="fill:#263371;fill-rule:nonzero;"/><path d="M127.708,92.315l0,-28.359l14.18,-0l0,28.359c0,3.767 -0.72,7.385 -2.16,10.856c-1.44,3.471 -3.49,6.537 -6.148,9.195c-2.659,2.659 -5.724,4.708 -9.195,6.148c-3.47,1.441 -7.09,2.16 -10.857,2.16c-3.765,-0 -7.384,-0.719 -10.855,-2.16c-3.471,-1.44 -6.536,-3.489 -9.195,-6.148c-0.406,-0.406 -0.812,-0.831 -1.218,-1.274c-0.406,0.443 -0.813,0.868 -1.219,1.274c-2.659,2.659 -5.724,4.708 -9.195,6.148c-3.47,1.441 -7.09,2.16 -10.856,2.16c-3.766,-0 -7.386,-0.719 -10.856,-2.16c-3.471,-1.44 -6.536,-3.489 -9.196,-6.148c-2.658,-2.658 -4.708,-5.724 -6.147,-9.195c-1.44,-3.471 -2.16,-7.089 -2.16,-10.856l0,-15.911l14.18,-0l0,15.911c0,3.914 1.384,7.256 4.153,10.026c2.769,2.769 6.112,4.154 10.026,4.154c3.914,-0 7.256,-1.385 10.026,-4.154c2.769,-2.77 4.154,-6.112 4.154,-10.026l0,-15.911l14.18,-0l0,15.911c0,3.914 1.383,7.256 4.153,10.026c2.769,2.769 6.112,4.154 10.025,4.154c3.915,-0 7.257,-1.385 10.027,-4.154c2.769,-2.77 4.153,-6.112 4.153,-10.026" style="fill:#978670;fill-rule:nonzero;"/></g></svg>